<?xml version="1.0" encoding="UTF-8" standalone="no"?>
<!-- Created with Inkscape (http://www.inkscape.org/) -->

<svg
   width="99.999992mm"
   height="100mm"
   viewBox="0 0 99.999993 100"
   version="1.1"
   id="svg5"
   sodipodi:docname="Genie Logo small.svg"
   inkscape:version="1.1.2 (0a00cf5339, 2022-02-04)"
   inkscape:export-filename="/home/fabian/Downloads/Genie Logo.png"
   inkscape:export-xdpi="299.87955"
   inkscape:export-ydpi="299.87955"
   xmlns:inkscape="http://www.inkscape.org/namespaces/inkscape"
   xmlns:sodipodi="http://sodipodi.sourceforge.net/DTD/sodipodi-0.dtd"
   xmlns="http://www.w3.org/2000/svg"
   xmlns:svg="http://www.w3.org/2000/svg">
  <sodipodi:namedview
     id="namedview7"
     pagecolor="#ffffff"
     bordercolor="#666666"
     borderopacity="1.0"
     inkscape:pageshadow="2"
     inkscape:pageopacity="0.0"
     inkscape:pagecheckerboard="0"
     inkscape:document-units="mm"
     showgrid="false"
     inkscape:zoom="1.4142136"
     inkscape:cx="434.51712"
     inkscape:cy="389.61583"
     inkscape:window-width="2560"
     inkscape:window-height="1408"
     inkscape:window-x="0"
     inkscape:window-y="0"
     inkscape:window-maximized="1"
     inkscape:current-layer="layer2"
     showguides="true"
     inkscape:guide-bbox="true"
     fit-margin-top="0"
     fit-margin-left="0"
     fit-margin-right="0"
     fit-margin-bottom="0" />
  <defs
     id="defs2">
    <rect
       x="244.02792"
       y="221.38751"
       width="769.68262"
       height="216.55101"
       id="rect8786" />
    <rect
       x="461.38864"
       y="539.04968"
       width="355.64099"
       height="352.02777"
       id="rect70675" />
    <rect
       x="244.02792"
       y="221.38751"
       width="769.68262"
       height="216.55101"
       id="rect8786-3" />
  </defs>
  <g
     inkscape:label="Ebene 1"
     inkscape:groupmode="layer"
     id="layer1"
     transform="translate(-4.5273746,-51.330784)">
    <text
       xml:space="preserve"
       transform="matrix(0.6126778,0,0,0.55635013,-216.78509,-273.11603)"
       id="text70673"
       style="font-style:normal;font-weight:normal;font-size:192px;line-height:1.25;font-family:sans-serif;white-space:pre;shape-inside:url(#rect70675);fill:#000000;fill-opacity:1;stroke:none" />
  </g>
  <g
     inkscape:groupmode="layer"
     id="layer2"
     inkscape:label="Ebene 2"
     transform="translate(-4.5273746,-51.330784)">
    <rect
       style="fill:#00aaa9;fill-opacity:1;stroke:#335368;stroke-width:2.03743;stroke-miterlimit:4;stroke-dasharray:none;stroke-opacity:1"
       id="rect129937"
       width="97.962563"
       height="97.96257"
       x="5.5460896"
       y="52.349499" />
    <path
       style="fill:#335368;fill-opacity:1;stroke:none;stroke-width:0.232254px;stroke-linecap:butt;stroke-linejoin:miter;stroke-opacity:1"
       d="m 41.125538,76.415547 c 4.048283,5.184635 20.123505,5.495102 26.921196,-0.117047 0.650157,-0.531683 1.311179,0.227758 0.986128,0.843296 -0.852376,1.287407 -2.895624,3.762614 -4.608494,4.752005 2.681782,2.213668 1.076307,7.337475 -0.60602,9.519857 l 0.60602,1.38788 c 0.394596,1.68679 -0.07564,3.780886 0,5.843034 4.36854,1.671958 10.633186,1.994798 9.770988,5.739948 -0.56737,2.08785 -7.980073,5.34424 -11.526599,6.56075 v 25.81718 c 0.01438,9.93141 -17.136252,9.74948 -17.117257,0.25312 V 110.8472 c -4.396239,-1.56006 -10.202871,-3.33423 -11.041962,-6.61719 -0.848072,-3.22837 5.49512,-4.570668 9.286351,-5.451308 0,0 -0.395405,-3.916605 0,-5.766561 0.135627,-0.561131 0.470969,-1.183355 0.818041,-1.711527 -1.761225,-2.498251 -3.773781,-5.546354 -0.818041,-9.208215 -2.129219,-1.468553 -3.371184,-3.153223 -3.730678,-5.082643 -0.128158,-0.770429 0.621031,-1.182509 1.060327,-0.594209 z"
       id="path75"
       sodipodi:nodetypes="ccccccccccccccccccc" />
    <path
       style="fill:#335368;fill-opacity:1;stroke:none;stroke-width:0.232253px;stroke-linecap:butt;stroke-linejoin:miter;stroke-opacity:1"
       d="M 45.5515,76.784144 C 45.200241,71.763979 44.411721,66.564849 43.198328,62.130859 46.967304,59.31659 62.1665,58.734701 65.872398,62.374248 64.672365,66.989962 63.000733,72.251828 62.668757,76.520445 58.251649,78.340886 49.862183,78.014124 45.5515,76.784144 Z"
       id="path73"
       sodipodi:nodetypes="ccccc" />
    <path
       style="fill:#ebebeb;fill-opacity:1;stroke:none;stroke-width:0.232253px;stroke-linecap:butt;stroke-linejoin:miter;stroke-opacity:1"
       d="m 47.526578,83.235094 c 4.989198,1.12999 8.685828,1.197884 13.167123,-0.03971 1.058686,0.497808 1.436418,1.137295 1.975056,2.111947 0.314601,0.702585 0.208537,1.640693 0,2.427386 -0.624769,2.206807 -1.201717,4.49979 -1.975056,6.36797 -1.456926,-1.775051 -3.762777,-3.340466 -5.831007,-1.617553 -0.515627,-0.01111 -1.031254,-0.02207 -1.546881,-0.03304 -2.559163,-1.686147 -3.955558,-0.266969 -5.789235,1.623903 -0.727456,-2.253099 -1.353238,-4.653917 -1.975078,-6.67032 -0.236459,-0.762078 -0.362722,-1.650238 0,-2.448604 0.512186,-0.971571 1.017192,-1.337054 1.975078,-1.721865 z"
       id="path77"
       sodipodi:nodetypes="ccccccccccc" />
    <path
       style="fill:#ebebeb;fill-opacity:1;stroke:none;stroke-width:0.232253px;stroke-linecap:butt;stroke-linejoin:miter;stroke-opacity:1"
       d="m 49.13005,96.506275 c 0.943631,-0.422912 2.241185,-0.995161 2.746436,-2.185288 1.742411,0.795637 2.744039,0.934076 4.352742,-0.11514 0.596836,1.13375 1.857764,1.661745 2.912019,2.215447 -0.455436,1.400357 -1.960888,1.780298 -3.263683,1.811888 -0.274054,-0.424208 -0.548109,-0.848399 -0.822163,-1.272621 -0.556632,0.0096 -1.228627,-0.01268 -1.785259,-0.0032 -0.418896,0.456022 -0.45859,1.003121 -0.924232,1.272751 -1.530742,-0.0329 -2.533052,-0.809175 -3.21586,-1.723234 v -2.1e-5 z"
       id="path79"
       sodipodi:nodetypes="ccccccccccc" />
    <path
       style="fill:#fbfeff;fill-opacity:1;stroke:none;stroke-width:0.232253px;stroke-linecap:butt;stroke-linejoin:miter;stroke-opacity:1"
       d="m 47.526578,109.26959 v 27.02362 c -0.120712,7.90847 13.179629,7.25487 13.167123,0.48679 v -27.48718 c 1.843414,-0.59649 10.551007,-3.9365 11.425212,-5.67427 -8.868447,0.0111 -14.140094,4.87125 -18.008784,12.18019 -3.505192,-7.72711 -8.734354,-12.219 -17.393251,-12.16867 1.247813,2.34554 7.927446,4.93426 10.8097,5.63952 z"
       id="path81"
       sodipodi:nodetypes="cccccccc" />
    <path
       style="fill:#335368;fill-opacity:1;stroke:none;stroke-width:0.0839926px;stroke-linecap:butt;stroke-linejoin:miter;stroke-opacity:1"
       d="m 59.469718,116.93525 c -0.19358,3.72283 -1.483516,5.63204 -3.965475,9.24809 2.139468,2.46977 3.813272,6.05478 4.246145,9.75204 0.127381,0.64216 -1.828052,1.19395 -1.949616,0.13181 -0.319001,-2.59403 -1.542855,-5.3443 -3.689727,-8.41078 -2.211282,2.34919 -3.280259,4.99855 -3.418784,8.03919 -0.04016,1.15625 -2.007634,1.23717 -2.010702,0.20965 0.05177,-3.28225 1.295615,-7.1368 3.998128,-9.60232 -1.802358,-1.95653 -4.089288,-6.45276 -4.214985,-9.35891 -0.0085,-0.69416 1.925434,-0.70289 1.97528,-0.088 0.338155,3.02079 1.633099,5.07694 3.657906,8.03319 1.679632,-1.86811 3.384853,-4.97869 3.326611,-7.89093 -0.02354,-0.96345 2.087928,-0.76518 2.045219,-0.0628 z"
       id="path18511"
       sodipodi:nodetypes="cccccccccccccc" />
    <path
       style="fill:#335368;fill-opacity:1;stroke:none;stroke-width:0.10862px;stroke-linecap:butt;stroke-linejoin:miter;stroke-opacity:1"
       d="m 54.756364,117.67476 3.403123,0.0111 c 0.451996,0.42163 0.251065,0.58553 -0.148495,1.21028 l -3.461982,-0.006 c -0.438903,0.009 -0.438903,-1.17999 0,-1.19655 z"
       id="path18626"
       sodipodi:nodetypes="cccccc" />
    <path
       style="fill:#335368;fill-opacity:1;stroke:none;stroke-width:0.0988592px;stroke-linecap:butt;stroke-linejoin:miter;stroke-opacity:1"
       d="m 49.720505,117.7057 c 1.316911,-0.003 2.63381,-0.006 3.950721,-0.01 0.438903,-0.009 0.438903,1.20265 0,1.1966 -0.927151,0.002 -2.641406,0.004 -3.962109,0.006 -0.06499,-0.0932 -0.129746,-0.18649 -0.19472,-0.27972 -0.0043,-0.13866 -0.01108,-0.27725 -0.01694,-0.41586 0.07436,-0.16618 0.148656,-0.33236 0.222994,-0.49854 z"
       id="path18626-3"
       sodipodi:nodetypes="ccccccc" />
    <path
       style="fill:#335368;fill-opacity:1;stroke:none;stroke-width:0.108103px;stroke-linecap:butt;stroke-linejoin:miter;stroke-opacity:1"
       d="m 55.203182,120.06048 2.391684,-0.002 c 0.477489,0.4833 0.334938,0.62704 -0.05529,1.12132 l -2.990619,-0.0212 c -0.438903,0.009 -0.438903,-1.09484 0,-1.08426 z"
       id="path18628"
       sodipodi:nodetypes="cccccc" />
    <path
       style="fill:#335368;fill-opacity:1;stroke:none;stroke-width:0.111294px;stroke-linecap:butt;stroke-linejoin:miter;stroke-opacity:1"
       d="m 50.966092,121.21282 -0.364223,-1.13571 c 0.995971,-5.8e-4 2.073375,-0.004 3.069357,-0.006 0.438903,-0.01 0.438903,1.14183 0,1.12245 -1.206191,0.0127 -1.10294,0.0204 -2.705112,0.0204 z"
       id="path18628-6"
       sodipodi:nodetypes="cccccc" />
    <path
       style="fill:#335368;fill-opacity:1;stroke:none;stroke-width:0.135098px;stroke-linecap:butt;stroke-linejoin:miter;stroke-opacity:1"
       d="m 56.554663,122.36054 c 0.737917,-0.051 0.144532,0.51951 -0.06584,1.06867 -0.540407,-0.003 -1.20518,-0.0111 -1.939805,-0.0111 -0.438914,-0.003 -0.438914,-1.06806 0,-1.05883 0.754675,-0.0159 1.362644,0.004 2.00562,8.9e-4 z"
       id="path18630"
       sodipodi:nodetypes="ccccc" />
    <path
       style="fill:#335368;fill-opacity:1;stroke:none;stroke-width:0.129804px;stroke-linecap:butt;stroke-linejoin:miter;stroke-opacity:1"
       d="m 51.115376,122.3425 c 0.863115,-0.0217 1.686066,0.004 2.55585,0.004 0.438903,-0.0112 0.507286,1.07426 0,1.0597 -0.848648,0.0159 -1.675136,0.0241 -2.478752,0.0112 -0.497571,-0.006 -0.467805,-1.08775 -0.07713,-1.07734 z"
       id="path18630-7"
       sodipodi:nodetypes="cccccc" />
    <path
       style="fill:#335368;fill-opacity:1;stroke:none;stroke-width:0.10862px;stroke-linecap:butt;stroke-linejoin:miter;stroke-opacity:1"
       d="m 53.478445,135.30741 -3.403123,-0.0111 c -0.452006,-0.42165 -0.251065,-0.58554 0.148485,-1.21029 l 3.461982,0.006 c 0.438902,-0.009 0.438902,1.17997 0,1.19655 z"
       id="path18626-6"
       sodipodi:nodetypes="cccccc" />
    <path
       style="fill:#335368;fill-opacity:1;stroke:none;stroke-width:0.0988592px;stroke-linecap:butt;stroke-linejoin:miter;stroke-opacity:1"
       d="m 58.514272,135.27647 c -1.316889,0.003 -2.633789,0.006 -3.950688,0.01 -0.438903,0.009 -0.438903,-1.20266 0,-1.19661 0.92714,-0.002 2.641395,-0.004 3.962098,-0.006 0.06498,0.0932 0.129756,0.18648 0.194709,0.27971 0.0064,0.13865 0.01108,0.27725 0.01704,0.41586 -0.07436,0.16617 -0.148666,0.33236 -0.223004,0.49854 z"
       id="path18626-3-2"
       sodipodi:nodetypes="ccccccc" />
    <path
       style="fill:#335368;fill-opacity:1;stroke:none;stroke-width:0.108103px;stroke-linecap:butt;stroke-linejoin:miter;stroke-opacity:1"
       d="m 53.031616,132.92169 -2.391683,0.002 c -0.477489,-0.48327 -0.334938,-0.62703 0.05529,-1.12132 l 2.990619,0.0212 c 0.438903,-0.009 0.438903,1.09485 0,1.08427 z"
       id="path18628-9"
       sodipodi:nodetypes="cccccc" />
    <path
       style="fill:#335368;fill-opacity:1;stroke:none;stroke-width:0.111294px;stroke-linecap:butt;stroke-linejoin:miter;stroke-opacity:1"
       d="m 57.268706,131.76934 0.364224,1.1357 c -0.995982,5.9e-4 -2.073386,0.004 -3.069346,0.006 -0.438903,0.01 -0.438903,-1.14183 0,-1.12243 1.20617,-0.0127 1.102929,-0.0205 2.705101,-0.0205 z"
       id="path18628-6-1"
       sodipodi:nodetypes="cccccc" />
    <path
       style="fill:#335368;fill-opacity:1;stroke:none;stroke-width:0.135098px;stroke-linecap:butt;stroke-linejoin:miter;stroke-opacity:1"
       d="m 51.680157,130.62163 c -0.737928,0.0511 -0.144532,-0.51951 0.06584,-1.06867 0.540407,0.003 1.205158,0.0111 1.939795,0.0111 0.438902,0.003 0.438902,1.06805 0,1.05883 -0.754654,0.0159 -1.362656,-0.004 -2.005632,-8.9e-4 z"
       id="path18630-2"
       sodipodi:nodetypes="ccccc" />
    <path
       style="fill:#335368;fill-opacity:1;stroke:none;stroke-width:0.129804px;stroke-linecap:butt;stroke-linejoin:miter;stroke-opacity:1"
       d="m 57.119433,130.63965 c -0.863114,0.0218 -1.686066,-0.004 -2.555849,-0.004 -0.438903,0.0111 -0.507308,-1.07425 0,-1.0597 0.848626,-0.0159 1.675136,-0.024 2.478731,-0.0111 0.49757,0.006 0.467826,1.08777 0.07713,1.07733 z"
       id="path18630-7-7"
       sodipodi:nodetypes="cccccc" />
  </g>
</svg>
