<?xml version="1.0" encoding="UTF-8" standalone="no"?>
<!-- Created with Inkscape (http://www.inkscape.org/) -->

<svg
   width="277.8855mm"
   height="102.23372mm"
   viewBox="0 0 277.8855 102.23372"
   version="1.1"
   id="svg5"
   sodipodi:docname="Genie Logo.svg"
   inkscape:version="1.1.2 (0a00cf5339, 2022-02-04)"
   inkscape:export-filename="/home/fabian/Downloads/Genie Logo.png"
   inkscape:export-xdpi="299.87955"
   inkscape:export-ydpi="299.87955"
   xmlns:inkscape="http://www.inkscape.org/namespaces/inkscape"
   xmlns:sodipodi="http://sodipodi.sourceforge.net/DTD/sodipodi-0.dtd"
   xmlns="http://www.w3.org/2000/svg"
   xmlns:svg="http://www.w3.org/2000/svg">
  <sodipodi:namedview
     id="namedview7"
     pagecolor="#ffffff"
     bordercolor="#666666"
     borderopacity="1.0"
     inkscape:pageshadow="2"
     inkscape:pageopacity="0.0"
     inkscape:pagecheckerboard="0"
     inkscape:document-units="mm"
     showgrid="false"
     inkscape:zoom="1"
     inkscape:cx="622.5"
     inkscape:cy="329"
     inkscape:window-width="2560"
     inkscape:window-height="1408"
     inkscape:window-x="0"
     inkscape:window-y="0"
     inkscape:window-maximized="1"
     inkscape:current-layer="layer2"
     showguides="true"
     inkscape:guide-bbox="true"
     fit-margin-top="0"
     fit-margin-left="0"
     fit-margin-right="0"
     fit-margin-bottom="0" />
  <defs
     id="defs2">
    <rect
       x="244.02792"
       y="221.38751"
       width="769.68262"
       height="216.55101"
       id="rect8786" />
    <rect
       x="461.38864"
       y="539.04968"
       width="355.64099"
       height="352.02777"
       id="rect70675" />
    <rect
       x="244.02792"
       y="221.38751"
       width="769.68262"
       height="216.55101"
       id="rect8786-3" />
  </defs>
  <g
     inkscape:label="Ebene 1"
     inkscape:groupmode="layer"
     id="layer1"
     transform="translate(-4.5273744,-51.330785)">
    <text
       xml:space="preserve"
       transform="matrix(0.6126778,0,0,0.55635013,-216.78509,-273.11603)"
       id="text70673"
       style="font-style:normal;font-weight:normal;font-size:192px;line-height:1.25;font-family:sans-serif;white-space:pre;shape-inside:url(#rect70675);fill:#000000;fill-opacity:1;stroke:none" />
  </g>
  <g
     inkscape:groupmode="layer"
     id="layer2"
     inkscape:label="Ebene 2"
     transform="translate(-4.5273744,-51.330785)">
    <rect
       style="fill:#00aaa9;fill-opacity:1;stroke:#335368;stroke-width:3.425;stroke-miterlimit:4;stroke-dasharray:none;stroke-opacity:1"
       id="rect129937"
       width="274.46051"
       height="98.808716"
       x="6.2398744"
       y="53.043285" />
    <path
       style="fill:#335368;fill-opacity:1;stroke:none;stroke-width:0.250438px;stroke-linecap:butt;stroke-linejoin:miter;stroke-opacity:1"
       d="m 193.53122,75.176411 c 4.36523,5.590548 21.699,5.925323 29.0289,-0.126211 0.70106,-0.57331 1.41383,0.245589 1.06333,0.909319 -0.91911,1.3882 -3.12232,4.057195 -4.9693,5.124047 2.89175,2.38698 1.16058,7.911939 -0.65346,10.265183 l 0.65346,1.496534 c 0.42549,1.81886 -0.0815,4.076906 0,6.300497 4.71056,1.80286 11.46568,2.15098 10.53598,6.18936 -0.61179,2.2513 -8.60485,5.76265 -12.42904,7.07439 v 27.83845 c 0.0155,10.70897 -18.47788,10.51278 -18.45739,0.27294 v -28.21713 c -4.74043,-1.6822 -11.00168,-3.59527 -11.90646,-7.13526 -0.91447,-3.48114 5.92534,-4.92852 10.0134,-5.878113 0,0 -0.42637,-4.223239 0,-6.21804 0.14624,-0.60506 0.50784,-1.275998 0.88208,-1.845523 -1.89911,-2.693843 -4.06923,-5.980587 -0.88208,-9.929141 -2.29593,-1.583529 -3.63512,-3.400094 -4.02276,-5.480572 -0.1382,-0.830748 0.66965,-1.27509 1.14334,-0.64073 z"
       id="path75"
       sodipodi:nodetypes="ccccccccccccccccccc" />
    <path
       style="fill:#335368;fill-opacity:1;stroke:none;stroke-width:0.250437px;stroke-linecap:butt;stroke-linejoin:miter;stroke-opacity:1"
       d="m 198.3037,75.573865 c -0.37876,-5.413202 -1.22902,-11.01938 -2.53741,-15.800516 4.06405,-3.034602 20.45322,-3.662049 24.44926,0.262445 -1.29399,4.977087 -3.09649,10.650913 -3.45446,15.253727 -4.76293,1.962967 -13.80922,1.610621 -18.45739,0.284344 z"
       id="path73"
       sodipodi:nodetypes="ccccc" />
    <path
       style="fill:#ebebeb;fill-opacity:1;stroke:none;stroke-width:0.250437px;stroke-linecap:butt;stroke-linejoin:miter;stroke-opacity:1"
       d="m 200.4334,82.529871 c 5.37982,1.218459 9.36586,1.291668 14.198,-0.04281 1.14158,0.536782 1.54888,1.226336 2.12969,2.277295 0.33923,0.757591 0.22486,1.769146 0,2.617431 -0.67368,2.379582 -1.2958,4.852085 -2.12969,6.866528 -1.57099,-1.914022 -4.05737,-3.601996 -6.28752,-1.744194 -0.556,-0.01198 -1.11199,-0.0238 -1.66799,-0.03562 -2.75952,-1.818158 -4.26525,-0.28787 -6.24249,1.751045 -0.7844,-2.429502 -1.45918,-5.018283 -2.1297,-7.192554 -0.25498,-0.821742 -0.39113,-1.779438 0,-2.64031 0.55228,-1.047637 1.09682,-1.441734 2.1297,-1.856672 z"
       id="path77"
       sodipodi:nodetypes="ccccccccccc" />
    <path
       style="fill:#ebebeb;fill-opacity:1;stroke:none;stroke-width:0.250437px;stroke-linecap:butt;stroke-linejoin:miter;stroke-opacity:1"
       d="m 202.16241,96.840075 c 1.01752,-0.456021 2.41666,-1.073068 2.96146,-2.356379 1.87883,0.857927 2.95888,1.007205 4.69353,-0.124155 0.64357,1.222517 2.00321,1.791853 3.14001,2.388898 -0.4911,1.509994 -2.11441,1.919674 -3.51921,1.953753 -0.29551,-0.457425 -0.59102,-0.914833 -0.88653,-1.372258 -0.60021,0.01027 -1.32482,-0.0137 -1.92503,-0.0034 -0.45169,0.491727 -0.49449,1.081665 -0.99659,1.372395 -1.65058,-0.03544 -2.73137,-0.872517 -3.46764,-1.858144 v -1.7e-5 z"
       id="path79"
       sodipodi:nodetypes="ccccccccccc" />
    <path
       style="fill:#fbfeff;fill-opacity:1;stroke:none;stroke-width:0.250437px;stroke-linecap:butt;stroke-linejoin:miter;stroke-opacity:1"
       d="m 200.4334,110.60266 v 29.13935 c -0.13016,8.52763 14.21149,7.82286 14.198,0.5249 v -29.6392 c 1.98774,-0.64319 11.37707,-4.24469 12.31972,-6.11852 -9.56278,0.0119 -15.24715,5.25264 -19.41873,13.1338 -3.77961,-8.33208 -9.41818,-13.17565 -18.755,-13.12137 1.34551,2.52917 8.5481,5.32057 11.65601,6.08104 z"
       id="path81"
       sodipodi:nodetypes="cccccccc" />
    <path
       style="fill:#335368;fill-opacity:1;stroke:none;stroke-width:0.0905685px;stroke-linecap:butt;stroke-linejoin:miter;stroke-opacity:1"
       d="m 213.31159,118.86848 c -0.20873,4.01429 -1.59966,6.07298 -4.27594,9.97213 2.30698,2.66314 4.11182,6.52883 4.57859,10.51556 0.13735,0.69243 -1.97117,1.28742 -2.10226,0.14213 -0.34397,-2.79712 -1.66364,-5.76272 -3.9786,-9.06928 -2.38441,2.53311 -3.53707,5.3899 -3.68644,8.66859 -0.0433,1.24677 -2.16482,1.33403 -2.16813,0.22607 0.0558,-3.53922 1.39705,-7.69556 4.31115,-10.35411 -1.94347,-2.10971 -4.40944,-6.95796 -4.54498,-10.09163 -0.009,-0.7485 2.07618,-0.75793 2.12992,-0.0949 0.36463,3.25729 1.76096,5.47442 3.94429,8.66212 1.81114,-2.01436 3.64986,-5.36848 3.58706,-8.50873 -0.0254,-1.03888 2.2514,-0.82509 2.20534,-0.0677 z"
       id="path18511"
       sodipodi:nodetypes="cccccccccccccc" />
    <path
       style="fill:#335368;fill-opacity:1;stroke:none;stroke-width:0.117125px;stroke-linecap:butt;stroke-linejoin:miter;stroke-opacity:1"
       d="m 208.22922,119.66588 3.66956,0.0119 c 0.48739,0.45465 0.27072,0.63138 -0.16012,1.30504 l -3.73302,-0.007 c -0.47327,0.009 -0.47327,-1.27237 0,-1.29023 z"
       id="path18626"
       sodipodi:nodetypes="cccccc" />
    <path
       style="fill:#335368;fill-opacity:1;stroke:none;stroke-width:0.106599px;stroke-linecap:butt;stroke-linejoin:miter;stroke-opacity:1"
       d="m 202.7991,119.69925 c 1.42001,-0.003 2.84002,-0.007 4.26003,-0.0103 0.47326,-0.009 0.47326,1.29681 0,1.29029 -0.99974,0.002 -2.84821,0.005 -4.27231,0.007 -0.0701,-0.10053 -0.1399,-0.20109 -0.20997,-0.30162 -0.005,-0.14951 -0.012,-0.29895 -0.0182,-0.44842 0.0802,-0.17918 0.16029,-0.35837 0.24045,-0.53757 z"
       id="path18626-3"
       sodipodi:nodetypes="ccccccc" />
    <path
       style="fill:#335368;fill-opacity:1;stroke:none;stroke-width:0.116566px;stroke-linecap:butt;stroke-linejoin:miter;stroke-opacity:1"
       d="m 208.71103,122.23839 2.57893,-0.002 c 0.51487,0.52113 0.36116,0.67613 -0.0596,1.2091 l -3.22476,-0.0229 c -0.47326,0.009 -0.47326,-1.18057 0,-1.16916 z"
       id="path18628"
       sodipodi:nodetypes="cccccc" />
    <path
       style="fill:#335368;fill-opacity:1;stroke:none;stroke-width:0.120008px;stroke-linecap:butt;stroke-linejoin:miter;stroke-opacity:1"
       d="m 204.1422,123.48095 -0.39273,-1.22462 c 1.07394,-6.3e-4 2.2357,-0.005 3.30966,-0.007 0.47326,-0.0103 0.47326,1.23122 0,1.21033 -1.30063,0.0137 -1.18929,0.0221 -2.9169,0.0221 z"
       id="path18628-6"
       sodipodi:nodetypes="cccccc" />
    <path
       style="fill:#335368;fill-opacity:1;stroke:none;stroke-width:0.145675px;stroke-linecap:butt;stroke-linejoin:miter;stroke-opacity:1"
       d="m 210.16831,124.71852 c 0.79569,-0.055 0.15585,0.56019 -0.071,1.15234 -0.58271,-0.004 -1.29953,-0.0119 -2.09168,-0.0119 -0.47327,-0.004 -0.47327,-1.15168 0,-1.14172 0.81376,-0.0171 1.46933,0.005 2.16265,9.5e-4 z"
       id="path18630"
       sodipodi:nodetypes="ccccc" />
    <path
       style="fill:#335368;fill-opacity:1;stroke:none;stroke-width:0.139967px;stroke-linecap:butt;stroke-linejoin:miter;stroke-opacity:1"
       d="m 204.30318,124.69908 c 0.93069,-0.0234 1.81807,0.005 2.75595,0.005 0.47326,-0.012 0.547,1.15836 0,1.14267 -0.91509,0.0171 -1.80629,0.0259 -2.67282,0.012 -0.53652,-0.007 -0.50443,-1.17291 -0.0832,-1.16168 z"
       id="path18630-7"
       sodipodi:nodetypes="cccccc" />
    <path
       style="fill:#335368;fill-opacity:1;stroke:none;stroke-width:0.117125px;stroke-linecap:butt;stroke-linejoin:miter;stroke-opacity:1"
       d="m 206.85125,138.67903 -3.66956,-0.012 c -0.48739,-0.45465 -0.27072,-0.63138 0.16012,-1.30504 l 3.73302,0.007 c 0.47327,-0.009 0.47327,1.27236 0,1.29023 z"
       id="path18626-6"
       sodipodi:nodetypes="cccccc" />
    <path
       style="fill:#335368;fill-opacity:1;stroke:none;stroke-width:0.106599px;stroke-linecap:butt;stroke-linejoin:miter;stroke-opacity:1"
       d="m 212.28135,138.64566 c -1.42,0.004 -2.84,0.007 -4.26,0.0103 -0.47327,0.009 -0.47327,-1.29681 0,-1.29029 0.99973,-0.002 2.84819,-0.005 4.2723,-0.007 0.0701,0.10052 0.13991,0.20108 0.20995,0.30162 0.007,0.1495 0.0119,0.29895 0.0184,0.44841 -0.0802,0.17918 -0.1603,0.35838 -0.24046,0.53757 z"
       id="path18626-3-2"
       sodipodi:nodetypes="ccccccc" />
    <path
       style="fill:#335368;fill-opacity:1;stroke:none;stroke-width:0.116566px;stroke-linecap:butt;stroke-linejoin:miter;stroke-opacity:1"
       d="m 206.36944,136.10652 -2.57893,0.002 c -0.51487,-0.52111 -0.36116,-0.67611 0.0596,-1.2091 l 3.22476,0.0229 c 0.47326,-0.009 0.47326,1.18056 0,1.16916 z"
       id="path18628-9"
       sodipodi:nodetypes="cccccc" />
    <path
       style="fill:#335368;fill-opacity:1;stroke:none;stroke-width:0.120008px;stroke-linecap:butt;stroke-linejoin:miter;stroke-opacity:1"
       d="m 210.93826,134.86396 0.39274,1.22461 c -1.07396,6.4e-4 -2.23571,0.005 -3.30965,0.007 -0.47327,0.0103 -0.47327,-1.23122 0,-1.21031 1.3006,-0.0137 1.18928,-0.0221 2.91689,-0.0221 z"
       id="path18628-6-1"
       sodipodi:nodetypes="cccccc" />
    <path
       style="fill:#335368;fill-opacity:1;stroke:none;stroke-width:0.145675px;stroke-linecap:butt;stroke-linejoin:miter;stroke-opacity:1"
       d="m 204.91217,133.62639 c -0.7957,0.0551 -0.15584,-0.56019 0.071,-1.15233 0.58271,0.004 1.29951,0.0119 2.09166,0.0119 0.47327,0.004 0.47327,1.15167 0,1.14172 -0.81374,0.0171 -1.46934,-0.005 -2.16265,-9.5e-4 z"
       id="path18630-2"
       sodipodi:nodetypes="ccccc" />
    <path
       style="fill:#335368;fill-opacity:1;stroke:none;stroke-width:0.139967px;stroke-linecap:butt;stroke-linejoin:miter;stroke-opacity:1"
       d="m 210.7773,133.64582 c -0.93069,0.0236 -1.81807,-0.005 -2.75595,-0.005 -0.47327,0.0119 -0.54703,-1.15835 0,-1.14266 0.91507,-0.0171 1.80628,-0.0259 2.67279,-0.012 0.53653,0.007 0.50446,1.17293 0.0832,1.16167 z"
       id="path18630-7-7"
       sodipodi:nodetypes="cccccc" />
    <rect
       style="fill:#ffffff;fill-opacity:1;stroke-width:0.546908"
       id="rect130063"
       width="10.426067"
       height="58.58614"
       x="81.912659"
       y="69.273674" />
    <rect
       style="fill:#335368;fill-opacity:1;stroke-width:0.370316"
       id="rect113195"
       width="178.72745"
       height="9.1275187"
       x="13.216117"
       y="134.55429" />
    <rect
       style="fill:#ffffff;fill-opacity:1;stroke-width:0.287415"
       id="rect129288"
       width="172.84146"
       height="3.8269637"
       x="15.985665"
       y="137.10287" />
    <rect
       style="fill:#335368;fill-opacity:1;stroke-width:0.198852"
       id="rect113195-3"
       width="51.535511"
       height="9.1275187"
       x="222.33749"
       y="134.63077" />
    <rect
       style="fill:#ffffff;fill-opacity:1;stroke-width:0.146987"
       id="rect129288-5"
       width="45.204613"
       height="3.8269637"
       x="225.24298"
       y="137.17937" />
    <rect
       style="fill:#ffffff;fill-opacity:1;stroke-width:0.523637"
       id="rect146981"
       width="25.557657"
       height="6.2563419"
       x="89.254135"
       y="69.89975" />
    <rect
       style="fill:#ffffff;fill-opacity:1;stroke-width:0.523637"
       id="rect146983"
       width="22.726446"
       height="8.6391296"
       x="91.316574"
       y="94.441772" />
    <rect
       style="fill:#ffffff;fill-opacity:1;stroke-width:0.523637"
       id="rect146985"
       width="25.142183"
       height="7.706337"
       x="90.817261"
       y="120.70096" />
    <rect
       style="fill:#ffffff;fill-opacity:1;stroke-width:0.523637"
       id="rect146987"
       width="9.5349903"
       height="46.147335"
       x="135.85789"
       y="83.227829" />
    <rect
       style="fill:#ffffff;fill-opacity:1;stroke-width:0.3891"
       id="rect146989"
       width="7.8062272"
       height="7.6029401"
       x="134.59453"
       y="78.174225"
       ry="0" />
    <rect
       style="fill:#ffffff;fill-opacity:1;stroke-width:0.523637"
       id="rect147093"
       width="3.7856977"
       height="6.5385699"
       x="135.67929"
       y="73.517792" />
    <rect
       style="fill:#ffffff;fill-opacity:1;stroke-width:0.523637"
       id="rect147095"
       width="11.465888"
       height="59.323036"
       x="233.35968"
       y="68.551918" />
    <rect
       style="fill:#ffffff;fill-opacity:1;stroke-width:0.523637"
       id="rect147097"
       width="29.368065"
       height="9.3414164"
       x="239.31178"
       y="68.409805" />
    <rect
       style="fill:#ffffff;fill-opacity:1;stroke-width:0.662421"
       id="rect147099"
       width="27.355085"
       height="9.553709"
       x="239.73907"
       y="93.573792" />
    <rect
       style="fill:#ffffff;fill-opacity:1;stroke-width:0.523637"
       id="rect147101"
       width="24.964643"
       height="7.3731418"
       x="243.71509"
       y="120.3675" />
    <rect
       style="fill:#ffffff;fill-opacity:1;stroke-width:0.505914"
       id="rect147253"
       width="10.054421"
       height="61.393536"
       x="171.2506"
       y="67.957718" />
    <rect
       style="fill:#ffffff;fill-opacity:1;stroke-width:0.527577"
       id="rect147357"
       width="13.149903"
       height="6.9772205"
       x="133.32356"
       y="67.605743" />
    <rect
       style="fill:#ffffff;fill-opacity:1;stroke-width:0.543008"
       id="rect147541"
       width="37.016445"
       height="3.8250706"
       x="154.17378"
       y="-88.096146"
       transform="matrix(0.51312083,0.85831639,-0.7162033,0.69789171,0,0)" />
    <rect
       style="fill:#ffffff;fill-opacity:1;stroke-width:0.543008"
       id="rect147541-6"
       width="37.016445"
       height="3.8250706"
       x="157.73723"
       y="-90.75563"
       transform="matrix(0.51312083,0.85831639,-0.7162033,0.69789171,0,0)" />
    <rect
       style="fill:#ffffff;fill-opacity:1;stroke-width:0.543008"
       id="rect147541-2"
       width="37.016445"
       height="3.8250706"
       x="179.51663"
       y="-88.056313"
       transform="matrix(0.51312083,0.85831639,-0.7162033,0.69789171,0,0)" />
    <rect
       style="fill:#ffffff;fill-opacity:1;stroke-width:0.543008"
       id="rect147541-9"
       width="37.016445"
       height="3.8250706"
       x="182.4277"
       y="-90.24678"
       transform="matrix(0.51312083,0.85831639,-0.7162033,0.69789171,0,0)" />
    <rect
       style="fill:#ffffff;fill-opacity:1;stroke-width:0.523637"
       id="rect147698"
       width="20.923058"
       height="7.2916827"
       x="44.541557"
       y="97.698067" />
    <rect
       style="fill:#ffffff;fill-opacity:1;stroke-width:0.57873"
       id="rect147700"
       width="9.5109711"
       height="13.17556"
       x="53.312286"
       y="105.69627" />
    <rect
       style="fill:#ffffff;fill-opacity:1;stroke-width:0.523637"
       id="rect147804"
       width="8.2833042"
       height="25.055511"
       x="19.369312"
       y="87.535225" />
    <rect
       style="fill:#ffffff;fill-opacity:1;stroke-width:0.523637"
       id="rect147806"
       width="8.2155991"
       height="8.1947556"
       x="21.776045"
       y="109.0593" />
    <rect
       style="fill:#ffffff;fill-opacity:1;stroke-width:0.523637"
       id="rect147808"
       width="7.0898352"
       height="4.7729945"
       x="21.840132"
       y="83.958832" />
    <rect
       style="fill:#ffffff;fill-opacity:1;stroke-width:0.523637"
       id="rect147810"
       width="10.222775"
       height="6.3071985"
       x="27.89451"
       y="73.373146" />
    <rect
       style="fill:#ffffff;fill-opacity:1;stroke-width:0.523637"
       id="rect147812"
       width="8.890872"
       height="4.2630219"
       x="24.608038"
       y="78.207352" />
    <rect
       style="fill:#ffffff;fill-opacity:1;stroke-width:0.523637"
       id="rect147814"
       width="2.3173771"
       height="2.5920699"
       x="26.527119"
       y="76.194298" />
    <rect
       style="fill:#ffffff;fill-opacity:1;stroke-width:0.523637"
       id="rect147816"
       width="6.6394353"
       height="3.84447"
       x="23.58547"
       y="81.091911" />
    <rect
       style="fill:#ffffff;fill-opacity:1;stroke-width:0.523637"
       id="rect147818"
       width="11.080235"
       height="5.0979199"
       x="32.474972"
       y="71.340118" />
    <rect
       style="fill:#ffffff;fill-opacity:1;stroke-width:0.523637"
       id="rect147820"
       width="13.001289"
       height="7.2742543"
       x="36.801853"
       y="68.463661" />
    <rect
       style="fill:#ffffff;fill-opacity:1;stroke-width:0.523637"
       id="rect147822"
       width="5.9255219"
       height="7.1112223"
       x="48.056526"
       y="69.434502" />
    <rect
       style="fill:#ffffff;fill-opacity:1;stroke-width:0.523637"
       id="rect147824"
       width="6.9289551"
       height="8.4478254"
       x="51.581112"
       y="70.196358" />
    <rect
       style="fill:#ffffff;fill-opacity:1;stroke-width:0.523637"
       id="rect147826"
       width="9.4098234"
       height="7.3853555"
       x="24.408463"
       y="114.52132" />
    <rect
       style="fill:#ffffff;fill-opacity:1;stroke-width:0.523637"
       id="rect147828"
       width="1.1244591"
       height="0.01847133"
       x="32.693836"
       y="121.88819" />
    <rect
       style="fill:#ffffff;fill-opacity:1;stroke-width:0.523637"
       id="rect147830"
       width="6.8601985"
       height="7.0477924"
       x="32.642384"
       y="119.50394" />
    <rect
       style="fill:#ffffff;fill-opacity:1;stroke-width:0.523637"
       id="rect147832"
       width="5.3191485"
       height="5.0997839"
       x="28.695627"
       y="119.86766" />
    <rect
       style="fill:#ffffff;fill-opacity:1;stroke-width:0.523637"
       id="rect147834"
       width="2.4251997"
       height="1.4434193"
       x="32.642384"
       y="119.50394" />
    <rect
       style="fill:#ffffff;fill-opacity:1;stroke-width:0.523637"
       id="rect147836"
       width="18.209606"
       height="5.1664271"
       x="38.217361"
       y="121.11101" />
    <rect
       style="fill:#ffffff;fill-opacity:1;stroke-width:0.523637"
       id="rect147838"
       width="7.5423903"
       height="5.1741972"
       x="55.123158"
       y="118.43917" />
    <rect
       style="fill:#ffffff;fill-opacity:1;stroke-width:0.523637"
       id="rect147840"
       width="6.601274"
       height="4.6062307"
       x="53.364197"
       y="120.29195" />
    <rect
       style="fill:#ffffff;fill-opacity:1;stroke-width:0.523637"
       id="rect147842"
       width="4.0539708"
       height="0.97040379"
       x="53.364197"
       y="124.89814" />
    <rect
       style="fill:#ffffff;fill-opacity:1;stroke-width:0.523637"
       id="rect147844"
       width="17.054388"
       height="3.0937283"
       x="36.93943"
       y="124.75378" />
    <rect
       style="fill:#ffffff;fill-opacity:1;stroke-width:0.523637"
       id="rect147846"
       width="2.4251962"
       height="1.4434179"
       x="32.642384"
       y="119.50394" />
    <rect
       style="fill:#ffffff;fill-opacity:1;stroke-width:0.523637"
       id="rect147848"
       width="2.6178997"
       height="1.3969178"
       x="32.44968"
       y="118.10701" />
    <rect
       style="fill:#335368;fill-opacity:1;stroke:#335368;stroke-width:0.723081;stroke-miterlimit:4;stroke-dasharray:none;stroke-opacity:1"
       id="rect148008"
       width="2.8869469"
       height="10.530793"
       x="53.604877"
       y="105.97884" />
    <rect
       style="fill:#335368;fill-opacity:1;stroke:#335368;stroke-width:0.723081;stroke-miterlimit:4;stroke-dasharray:none;stroke-opacity:1"
       id="rect148008-1"
       width="2.8869469"
       height="10.530793"
       x="62.34182"
       y="96.218483" />
    <rect
       style="fill:#335368;fill-opacity:1;stroke:#335368;stroke-width:0.721074;stroke-miterlimit:4;stroke-dasharray:none;stroke-opacity:1"
       id="rect148008-1-3"
       width="2.8699677"
       height="10.534367"
       x="241.77881"
       y="84.07666" />
    <rect
       style="fill:#335368;fill-opacity:1;stroke:#335368;stroke-width:0.886959;stroke-miterlimit:4;stroke-dasharray:none;stroke-opacity:1"
       id="rect148008-1-0"
       width="2.7253158"
       height="16.784737"
       x="142.34534"
       y="83.350136" />
    <rect
       style="fill:#335368;fill-opacity:1;stroke:#335368;stroke-width:0.762443;stroke-miterlimit:4;stroke-dasharray:none;stroke-opacity:1"
       id="rect148008-1-0-9"
       width="11.213071"
       height="3.0145204"
       x="134.6449"
       y="68.024727" />
    <rect
       style="fill:#335368;fill-opacity:1;stroke:#335368;stroke-width:0.723081;stroke-miterlimit:4;stroke-dasharray:none;stroke-opacity:1"
       id="rect148008-1-2"
       width="2.8869469"
       height="10.530793"
       x="89.134247"
       y="84.963722" />
    <rect
       style="fill:#335368;fill-opacity:1;stroke:#335368;stroke-width:0.568266;stroke-miterlimit:4;stroke-dasharray:none;stroke-opacity:1"
       id="rect148008-1-2-7"
       width="6.5859938"
       height="2.8510487"
       x="91.393608"
       y="99.990257" />
    <rect
       style="fill:#335368;fill-opacity:1;stroke:#335368;stroke-width:1.01254;stroke-miterlimit:4;stroke-dasharray:none;stroke-opacity:1"
       id="rect148457"
       width="6.3396087"
       height="2.3365135"
       x="243.80502"
       y="100.25021" />
    <text
       xml:space="preserve"
       transform="matrix(0.5200078,0,0,0.52157825,-115.14717,-70.450923)"
       id="text8784"
       style="font-style:normal;font-variant:normal;font-weight:normal;font-stretch:normal;font-size:160px;line-height:1.25;font-family:'LIBRARY 3 AM';-inkscape-font-specification:'LIBRARY 3 AM';white-space:pre;shape-inside:url(#rect8786);fill:#335368;fill-opacity:1;stroke:none"><tspan
         x="244.02734"
         y="384.47926"
         id="tspan165319">GEN E</tspan></text>
  </g>
</svg>
